<mxfile host="app.diagrams.net" modified="2022-08-17T13:27:35.511Z" agent="5.0 (Windows NT 10.0; Win64; x64) AppleWebKit/537.36 (KHTML, like Gecko) Chrome/104.0.5112.81 Safari/537.36" etag="Cjm0XM9t0PAEFUBc7Jdf" version="20.2.4" type="github">
  <diagram id="_nWkj02W_02dwaLKtO4F" name="第 1 页">
    <mxGraphModel dx="1185" dy="655" grid="1" gridSize="10" guides="1" tooltips="1" connect="1" arrows="1" fold="1" page="1" pageScale="1" pageWidth="827" pageHeight="1169" math="0" shadow="0">
      <root>
        <mxCell id="0" />
        <mxCell id="1" parent="0" />
        <mxCell id="oaM5Wq3JQ6LTzCRLduBg-45" value="" style="rounded=1;whiteSpace=wrap;html=1;labelBackgroundColor=none;strokeColor=#1A1A1A;dashed=1;" vertex="1" parent="1">
          <mxGeometry x="300" y="900" width="500" height="450" as="geometry" />
        </mxCell>
        <mxCell id="oaM5Wq3JQ6LTzCRLduBg-34" value="" style="rounded=1;whiteSpace=wrap;html=1;" vertex="1" parent="1">
          <mxGeometry x="323.5" y="930" width="213" height="150" as="geometry" />
        </mxCell>
        <mxCell id="oaM5Wq3JQ6LTzCRLduBg-1" value="" style="rounded=1;whiteSpace=wrap;html=1;" vertex="1" parent="1">
          <mxGeometry x="350" y="150" width="120" height="70" as="geometry" />
        </mxCell>
        <mxCell id="oaM5Wq3JQ6LTzCRLduBg-2" value="" style="rounded=1;whiteSpace=wrap;html=1;" vertex="1" parent="1">
          <mxGeometry x="360" y="160" width="120" height="70" as="geometry" />
        </mxCell>
        <mxCell id="oaM5Wq3JQ6LTzCRLduBg-3" value="Client" style="rounded=1;whiteSpace=wrap;html=1;" vertex="1" parent="1">
          <mxGeometry x="370" y="170" width="120" height="70" as="geometry" />
        </mxCell>
        <mxCell id="oaM5Wq3JQ6LTzCRLduBg-4" value="" style="endArrow=classic;startArrow=classic;html=1;rounded=0;entryX=0.5;entryY=1;entryDx=0;entryDy=0;" edge="1" parent="1" target="oaM5Wq3JQ6LTzCRLduBg-3">
          <mxGeometry width="50" height="50" relative="1" as="geometry">
            <mxPoint x="430" y="320" as="sourcePoint" />
            <mxPoint x="450" y="300" as="targetPoint" />
          </mxGeometry>
        </mxCell>
        <mxCell id="oaM5Wq3JQ6LTzCRLduBg-5" value="KeepAlive&lt;br&gt;VIP:10.10.10.10" style="ellipse;whiteSpace=wrap;html=1;" vertex="1" parent="1">
          <mxGeometry x="370" y="320" width="120" height="80" as="geometry" />
        </mxCell>
        <mxCell id="oaM5Wq3JQ6LTzCRLduBg-7" value="Nginx:Backup&lt;br&gt;&amp;nbsp; &amp;nbsp;10.10.10.11" style="rounded=1;whiteSpace=wrap;html=1;" vertex="1" parent="1">
          <mxGeometry x="560" y="460" width="120" height="70" as="geometry" />
        </mxCell>
        <mxCell id="oaM5Wq3JQ6LTzCRLduBg-8" value="Nginx:Master&lt;br&gt;&amp;nbsp; &amp;nbsp;10.10.10.10&lt;span style=&quot;white-space: pre;&quot;&gt;	&lt;/span&gt;" style="rounded=1;whiteSpace=wrap;html=1;" vertex="1" parent="1">
          <mxGeometry x="180" y="460" width="120" height="70" as="geometry" />
        </mxCell>
        <mxCell id="oaM5Wq3JQ6LTzCRLduBg-10" value="" style="endArrow=classic;startArrow=classic;html=1;rounded=0;fontSize=19;entryX=0.5;entryY=1;entryDx=0;entryDy=0;exitX=0.5;exitY=0;exitDx=0;exitDy=0;" edge="1" parent="1" source="oaM5Wq3JQ6LTzCRLduBg-8" target="oaM5Wq3JQ6LTzCRLduBg-5">
          <mxGeometry width="50" height="50" relative="1" as="geometry">
            <mxPoint x="230" y="430" as="sourcePoint" />
            <mxPoint x="280" y="380" as="targetPoint" />
            <Array as="points">
              <mxPoint x="240" y="440" />
              <mxPoint x="430" y="430" />
            </Array>
          </mxGeometry>
        </mxCell>
        <mxCell id="oaM5Wq3JQ6LTzCRLduBg-12" value="" style="endArrow=classic;startArrow=classic;html=1;rounded=0;fontSize=19;exitX=0.5;exitY=0;exitDx=0;exitDy=0;" edge="1" parent="1" source="oaM5Wq3JQ6LTzCRLduBg-7">
          <mxGeometry width="50" height="50" relative="1" as="geometry">
            <mxPoint x="250" y="470" as="sourcePoint" />
            <mxPoint x="430" y="400" as="targetPoint" />
            <Array as="points">
              <mxPoint x="620" y="440" />
              <mxPoint x="430" y="430" />
            </Array>
          </mxGeometry>
        </mxCell>
        <mxCell id="oaM5Wq3JQ6LTzCRLduBg-13" value="服务集群" style="ellipse;whiteSpace=wrap;html=1;" vertex="1" parent="1">
          <mxGeometry x="370" y="630" width="120" height="80" as="geometry" />
        </mxCell>
        <mxCell id="oaM5Wq3JQ6LTzCRLduBg-15" value="" style="endArrow=classic;startArrow=classic;html=1;rounded=0;fontSize=19;exitX=0.5;exitY=0;exitDx=0;exitDy=0;entryX=0.5;entryY=1;entryDx=0;entryDy=0;" edge="1" parent="1" source="oaM5Wq3JQ6LTzCRLduBg-13" target="oaM5Wq3JQ6LTzCRLduBg-7">
          <mxGeometry width="50" height="50" relative="1" as="geometry">
            <mxPoint x="470" y="630" as="sourcePoint" />
            <mxPoint x="520" y="580" as="targetPoint" />
            <Array as="points">
              <mxPoint x="430" y="570" />
              <mxPoint x="620" y="560" />
            </Array>
          </mxGeometry>
        </mxCell>
        <mxCell id="oaM5Wq3JQ6LTzCRLduBg-16" value="" style="endArrow=classic;startArrow=classic;html=1;rounded=0;fontSize=19;exitX=0.5;exitY=0;exitDx=0;exitDy=0;entryX=0.5;entryY=1;entryDx=0;entryDy=0;" edge="1" parent="1" source="oaM5Wq3JQ6LTzCRLduBg-13" target="oaM5Wq3JQ6LTzCRLduBg-8">
          <mxGeometry width="50" height="50" relative="1" as="geometry">
            <mxPoint x="320" y="620" as="sourcePoint" />
            <mxPoint x="370" y="570" as="targetPoint" />
            <Array as="points">
              <mxPoint x="430" y="570" />
              <mxPoint x="240" y="560" />
            </Array>
          </mxGeometry>
        </mxCell>
        <mxCell id="oaM5Wq3JQ6LTzCRLduBg-17" value="http.https" style="text;html=1;strokeColor=none;fillColor=none;align=center;verticalAlign=middle;whiteSpace=wrap;rounded=0;" vertex="1" parent="1">
          <mxGeometry x="437" y="270" width="60" height="30" as="geometry" />
        </mxCell>
        <mxCell id="oaM5Wq3JQ6LTzCRLduBg-18" value="" style="endArrow=classic;startArrow=classic;html=1;rounded=0;entryX=-0.002;entryY=0.88;entryDx=0;entryDy=0;entryPerimeter=0;exitX=0.998;exitY=0.88;exitDx=0;exitDy=0;exitPerimeter=0;" edge="1" parent="1" source="oaM5Wq3JQ6LTzCRLduBg-8" target="oaM5Wq3JQ6LTzCRLduBg-7">
          <mxGeometry width="50" height="50" relative="1" as="geometry">
            <mxPoint x="380" y="530" as="sourcePoint" />
            <mxPoint x="430" y="480" as="targetPoint" />
          </mxGeometry>
        </mxCell>
        <mxCell id="oaM5Wq3JQ6LTzCRLduBg-19" value="心跳检测" style="text;html=1;strokeColor=none;fillColor=none;align=center;verticalAlign=middle;whiteSpace=wrap;rounded=0;" vertex="1" parent="1">
          <mxGeometry x="400" y="490" width="60" height="30" as="geometry" />
        </mxCell>
        <mxCell id="oaM5Wq3JQ6LTzCRLduBg-20" value="C++ service&lt;br&gt;10.10.10.10:8070" style="rounded=1;whiteSpace=wrap;html=1;" vertex="1" parent="1">
          <mxGeometry x="980" y="880" width="120" height="60" as="geometry" />
        </mxCell>
        <mxCell id="oaM5Wq3JQ6LTzCRLduBg-21" value="sidecar&lt;br&gt;10.10.10.10:8060" style="rounded=1;whiteSpace=wrap;html=1;" vertex="1" parent="1">
          <mxGeometry x="980" y="1000" width="120" height="60" as="geometry" />
        </mxCell>
        <mxCell id="oaM5Wq3JQ6LTzCRLduBg-22" value="Nacos集群" style="ellipse;whiteSpace=wrap;html=1;" vertex="1" parent="1">
          <mxGeometry x="980" y="1120" width="120" height="80" as="geometry" />
        </mxCell>
        <mxCell id="oaM5Wq3JQ6LTzCRLduBg-23" value="" style="endArrow=classic;startArrow=classic;html=1;rounded=0;entryX=0.5;entryY=1;entryDx=0;entryDy=0;exitX=0.5;exitY=0;exitDx=0;exitDy=0;" edge="1" parent="1" source="oaM5Wq3JQ6LTzCRLduBg-22" target="oaM5Wq3JQ6LTzCRLduBg-21">
          <mxGeometry width="50" height="50" relative="1" as="geometry">
            <mxPoint x="920" y="1130" as="sourcePoint" />
            <mxPoint x="970" y="1080" as="targetPoint" />
          </mxGeometry>
        </mxCell>
        <mxCell id="oaM5Wq3JQ6LTzCRLduBg-24" value="" style="endArrow=classic;startArrow=classic;html=1;rounded=0;entryX=0.5;entryY=1;entryDx=0;entryDy=0;exitX=0.5;exitY=0;exitDx=0;exitDy=0;" edge="1" parent="1" source="oaM5Wq3JQ6LTzCRLduBg-21" target="oaM5Wq3JQ6LTzCRLduBg-20">
          <mxGeometry width="50" height="50" relative="1" as="geometry">
            <mxPoint x="840" y="1050" as="sourcePoint" />
            <mxPoint x="890" y="1000" as="targetPoint" />
          </mxGeometry>
        </mxCell>
        <mxCell id="oaM5Wq3JQ6LTzCRLduBg-25" value="边车服务" style="text;html=1;strokeColor=none;fillColor=none;align=center;verticalAlign=middle;whiteSpace=wrap;rounded=0;" vertex="1" parent="1">
          <mxGeometry x="1050" y="960" width="60" height="30" as="geometry" />
        </mxCell>
        <mxCell id="oaM5Wq3JQ6LTzCRLduBg-26" value="服务注册" style="text;html=1;strokeColor=none;fillColor=none;align=center;verticalAlign=middle;whiteSpace=wrap;rounded=0;" vertex="1" parent="1">
          <mxGeometry x="1050" y="1080" width="60" height="30" as="geometry" />
        </mxCell>
        <mxCell id="oaM5Wq3JQ6LTzCRLduBg-27" value="服务发现" style="text;html=1;strokeColor=none;fillColor=none;align=center;verticalAlign=middle;whiteSpace=wrap;rounded=0;" vertex="1" parent="1">
          <mxGeometry x="970" y="1080" width="60" height="30" as="geometry" />
        </mxCell>
        <mxCell id="oaM5Wq3JQ6LTzCRLduBg-28" value="SpringBoot service" style="rounded=1;whiteSpace=wrap;html=1;" vertex="1" parent="1">
          <mxGeometry x="1181" y="1130" width="120" height="60" as="geometry" />
        </mxCell>
        <mxCell id="oaM5Wq3JQ6LTzCRLduBg-29" value="" style="endArrow=classic;startArrow=classic;html=1;rounded=0;entryX=0;entryY=0.5;entryDx=0;entryDy=0;exitX=1;exitY=0.5;exitDx=0;exitDy=0;" edge="1" parent="1" source="oaM5Wq3JQ6LTzCRLduBg-22" target="oaM5Wq3JQ6LTzCRLduBg-28">
          <mxGeometry width="50" height="50" relative="1" as="geometry">
            <mxPoint x="1130" y="1140" as="sourcePoint" />
            <mxPoint x="1180" y="1090" as="targetPoint" />
          </mxGeometry>
        </mxCell>
        <mxCell id="oaM5Wq3JQ6LTzCRLduBg-31" value="服务发现" style="text;html=1;strokeColor=none;fillColor=none;align=center;verticalAlign=middle;whiteSpace=wrap;rounded=0;" vertex="1" parent="1">
          <mxGeometry x="1110" y="1130" width="60" height="30" as="geometry" />
        </mxCell>
        <mxCell id="oaM5Wq3JQ6LTzCRLduBg-32" value="服务注册" style="text;html=1;strokeColor=none;fillColor=none;align=center;verticalAlign=middle;whiteSpace=wrap;rounded=0;" vertex="1" parent="1">
          <mxGeometry x="1110" y="1160" width="60" height="30" as="geometry" />
        </mxCell>
        <mxCell id="oaM5Wq3JQ6LTzCRLduBg-33" value="C++微服务" style="rounded=1;whiteSpace=wrap;html=1;" vertex="1" parent="1">
          <mxGeometry x="370" y="1010" width="120" height="60" as="geometry" />
        </mxCell>
        <mxCell id="oaM5Wq3JQ6LTzCRLduBg-35" value="Sidecar" style="rounded=1;whiteSpace=wrap;html=1;" vertex="1" parent="1">
          <mxGeometry x="370" y="940" width="120" height="60" as="geometry" />
        </mxCell>
        <mxCell id="oaM5Wq3JQ6LTzCRLduBg-36" value="Java微服务" style="rounded=1;whiteSpace=wrap;html=1;" vertex="1" parent="1">
          <mxGeometry x="560" y="930" width="213" height="150" as="geometry" />
        </mxCell>
        <mxCell id="oaM5Wq3JQ6LTzCRLduBg-38" value="通信库&lt;br&gt;&lt;br&gt;&lt;br&gt;&lt;br&gt;&lt;br&gt;&lt;br&gt;&lt;br&gt;&lt;br&gt;&lt;br&gt;" style="rounded=1;whiteSpace=wrap;html=1;" vertex="1" parent="1">
          <mxGeometry x="323.5" y="1085" width="446.5" height="150" as="geometry" />
        </mxCell>
        <mxCell id="oaM5Wq3JQ6LTzCRLduBg-41" value="gRPC-spring-boot-start" style="rounded=1;whiteSpace=wrap;html=1;labelBackgroundColor=none;strokeColor=#1A1A1A;" vertex="1" parent="1">
          <mxGeometry x="558" y="1169" width="200" height="50" as="geometry" />
        </mxCell>
        <mxCell id="oaM5Wq3JQ6LTzCRLduBg-42" value="Restful" style="rounded=1;whiteSpace=wrap;html=1;labelBackgroundColor=none;strokeColor=#1A1A1A;" vertex="1" parent="1">
          <mxGeometry x="345" y="1169" width="200" height="50" as="geometry" />
        </mxCell>
        <mxCell id="oaM5Wq3JQ6LTzCRLduBg-43" value="权限认证" style="rounded=1;whiteSpace=wrap;html=1;labelBackgroundColor=none;strokeColor=#1A1A1A;" vertex="1" parent="1">
          <mxGeometry x="344" y="1120" width="416" height="40" as="geometry" />
        </mxCell>
        <mxCell id="oaM5Wq3JQ6LTzCRLduBg-44" value="软件服务化集成平台" style="rounded=1;whiteSpace=wrap;html=1;labelBackgroundColor=none;strokeColor=#1A1A1A;" vertex="1" parent="1">
          <mxGeometry x="324" y="1260" width="446" height="60" as="geometry" />
        </mxCell>
      </root>
    </mxGraphModel>
  </diagram>
</mxfile>
